<?xml version="1.0" encoding="UTF-8"?>
<svg xmlns="http://www.w3.org/2000/svg" viewBox="0 0 1480 880" font-family="Segoe UI, -apple-system, Helvetica, Arial, sans-serif" role="img" aria-label="E-Commerce MCP Solution Accelerator — Azure reference architecture">
  <title>E-Commerce MCP Solution Accelerator — Azure reference architecture (production path)</title>
  <desc>A Python client calls a Microsoft Foundry agent over the Responses API. The agent uses an MCPTool to call a Playwright MCP server hosted on Azure Container Apps. The container image comes from the public Microsoft Container Registry (mcr.microsoft.com/playwright). Headless Chromium browses target e-commerce sites. Authentication uses Microsoft Entra ID via DefaultAzureCredential / managed identity. Observability is provided by the Microsoft Foundry portal. Screenshot persistence in Azure Blob Storage is optional.</desc>

  <defs>
    <style>
      .canvas-bg     { fill:#FFFFFF; }
      .header        { font-size:28px; font-weight:700; fill:#201F1E; }
      .subheader     { font-size:16px; fill:#605E5C; }

      .sub-box       { fill:none; stroke:#0078D4; stroke-width:1.5; rx:14; ry:14; }
      .sub-tab       { fill:#0078D4; }
      .rg-box        { fill:#FAFCFE; stroke:#0078D4; stroke-width:1.4; stroke-dasharray:6 4; rx:12; ry:12; }
      .rg-tab        { fill:#E5F1FB; stroke:#0078D4; stroke-width:1.2; rx:6; ry:6; }
      .group-box     { fill:#FFFFFF; stroke:#8A8886; stroke-width:1.2; stroke-dasharray:4 3; rx:10; ry:10; }
      .env-box       { fill:#F3F9FD; stroke:#0078D4; stroke-width:1.2; stroke-dasharray:4 3; rx:10; ry:10; }
      .opt-box       { fill:#FFFFFF; stroke:#8A8886; stroke-width:1.2; stroke-dasharray:2 3; rx:10; ry:10; }

      .boundary-label{ font-size:15px; font-weight:700; fill:#0078D4; }
      .group-label   { font-size:15px; font-weight:700; fill:#605E5C; }
      .opt-label     { font-size:13px; font-weight:700; fill:#8A8886; font-style:italic; }

      .svc-title     { font-size:16px; font-weight:700; fill:#201F1E; text-anchor:middle; }
      .svc-sub       { font-size:13px; fill:#605E5C; text-anchor:middle; }

      .flow          { stroke:#605E5C; stroke-width:1.6; fill:none; marker-end:url(#arrow); }
      .flow-strong   { stroke:#0078D4; stroke-width:2;   fill:none; marker-end:url(#arrowBlue); }
      .flow-dot      { stroke:#605E5C; stroke-width:1.4; fill:none; stroke-dasharray:4 3; marker-end:url(#arrow); }
      .flow-opt      { stroke:#8A8886; stroke-width:1.4; fill:none; stroke-dasharray:2 3; marker-end:url(#arrow); }
      .flow-label    { font-size:13px; font-weight:600; fill:#323130; }

      .step          { fill:#0078D4; }
      .step-text     { fill:#FFFFFF; font-size:13px; font-weight:700; text-anchor:middle; dominant-baseline:central; }

      .legend-box    { fill:#FAF9F8; stroke:#C8C6C4; stroke-width:1; rx:8; ry:8; }
      .legend-title  { font-size:15px; font-weight:700; fill:#201F1E; }
      .legend-item   { font-size:14px; fill:#323130; }
      .legend-note   { font-size:13px; fill:#605E5C; font-style:italic; }
    </style>

    <marker id="arrow" viewBox="0 0 10 10" refX="9" refY="5" markerWidth="7" markerHeight="7" orient="auto-start-reverse">
      <path d="M0,0 L10,5 L0,10 z" fill="#605E5C"/>
    </marker>
    <marker id="arrowBlue" viewBox="0 0 10 10" refX="9" refY="5" markerWidth="7" markerHeight="7" orient="auto-start-reverse">
      <path d="M0,0 L10,5 L0,10 z" fill="#0078D4"/>
    </marker>

    <!-- Microsoft Foundry (official mark from ai.azure.com) -->
    <linearGradient id="fGrad0" x1="17.629" y1="16.4706" x2="13.8849" y2="1.47926" gradientUnits="userSpaceOnUse">
      <stop stop-color="#712575"/><stop offset="0.4" stop-color="#F131A5"/><stop offset="1" stop-color="#712575"/>
    </linearGradient>
    <linearGradient id="fGrad1" x1="19.0518" y1="1.22453" x2="19.0518" y2="22.3712" gradientUnits="userSpaceOnUse">
      <stop stop-color="#DA7ED0"/><stop offset="0.5" stop-color="#3973E7"/><stop offset="1" stop-color="#1171ED"/>
    </linearGradient>
    <linearGradient id="fGrad2" x1="17.7788" y1="1.7039" x2="3.76094" y2="24.1834" gradientUnits="userSpaceOnUse">
      <stop stop-color="#DA7ED0"/><stop offset="0.4" stop-color="#2772E9"/><stop offset="1" stop-color="#1171ED"/>
    </linearGradient>
    <symbol id="logo-foundry" viewBox="0 0 24 24">
      <path fill-rule="evenodd" clip-rule="evenodd" d="M15.7719 0.910156C16.4309 0.910156 17.0149 1.41935 17.2246 2.13822C17.4343 2.85708 18.6623 7.30507 18.6623 7.30507V16.1411H14.2144L14.3042 0.910156H15.7719Z" fill="url(#fGrad0)"/>
      <path d="M22.3017 7.81414C22.3017 7.49963 22.0471 7.26001 21.7476 7.26001H19.1267C17.2846 7.26001 15.787 8.75765 15.787 10.5997V16.141H18.962C20.8041 16.141 22.3017 14.6434 22.3017 12.8013V7.81414Z" fill="url(#fGrad1)"/>
      <path fill-rule="evenodd" clip-rule="evenodd" d="M15.772 0.910156C15.2628 0.910156 14.8584 1.31452 14.8584 1.82371L14.7686 18.6422C14.7686 21.0983 12.7767 23.0902 10.3206 23.0902H2.24833C1.85894 23.0902 1.60435 22.7157 1.72416 22.3563L8.19395 3.89045C8.82295 2.10827 10.5003 0.910156 12.3873 0.910156H15.787H15.772Z" fill="url(#fGrad2)"/>
    </symbol>

    <!-- Playwright (official mark from playwright.dev) -->
    <symbol id="logo-playwright" viewBox="0 0 400 400">
      <path d="M136.444 221.556C123.558 225.213 115.104 231.625 109.535 238.032C114.869 233.364 122.014 229.08 131.652 226.348C141.51 223.554 149.92 223.574 156.869 224.915V219.481C150.941 218.939 144.145 219.371 136.444 221.556ZM108.946 175.876L61.0895 188.484C61.0895 188.484 61.9617 189.716 63.5767 191.36L104.153 180.668C104.153 180.668 103.578 188.077 98.5847 194.705C108.03 187.559 108.946 175.876 108.946 175.876ZM149.005 288.347C81.6582 306.486 46.0272 228.438 35.2396 187.928C30.2556 169.229 28.0799 155.067 27.5 145.928C27.4377 144.979 27.4665 144.179 27.5336 143.446C24.04 143.657 22.3674 145.473 22.7077 150.721C23.2876 159.855 25.4633 174.016 30.4473 192.721C41.2301 233.225 76.8659 311.273 144.213 293.134C158.872 289.185 169.885 281.992 178.152 272.81C170.532 279.692 160.995 285.112 149.005 288.347ZM161.661 128.11V132.903H188.077C187.535 131.206 186.989 129.677 186.447 128.11H161.661Z" fill="#2D4552"/>
      <path d="M193.981 167.584C205.861 170.958 212.144 179.287 215.465 186.658L228.711 190.42C228.711 190.42 226.904 164.623 203.57 157.995C181.741 151.793 168.308 170.124 166.674 172.496C173.024 167.972 182.297 164.268 193.981 167.584ZM299.422 186.777C277.573 180.547 264.145 198.916 262.535 201.255C268.89 196.736 278.158 193.031 289.837 196.362C301.698 199.741 307.976 208.06 311.307 215.436L324.572 219.212C324.572 219.212 322.736 193.41 299.422 186.777ZM286.262 254.795L176.072 223.99C176.072 223.99 177.265 230.038 181.842 237.869L274.617 263.805C282.255 259.386 286.262 254.795 286.262 254.795ZM209.867 321.102C122.618 297.71 133.166 186.543 147.284 133.865C153.097 112.156 159.073 96.0203 164.029 85.204C161.072 84.5953 158.623 86.1529 156.203 91.0746C150.941 101.747 144.212 119.124 137.7 143.45C123.586 196.127 113.038 307.29 200.283 330.682C241.406 341.699 273.442 324.955 297.323 298.659C274.655 319.19 245.714 330.701 209.867 321.102Z" fill="#2D4552"/>
      <path d="M161.661 262.296V239.863L99.3324 257.537C99.3324 257.537 103.938 230.777 136.444 221.556C146.302 218.762 154.713 218.781 161.661 220.123V128.11H192.869C189.471 117.61 186.184 109.526 183.423 103.909C178.856 94.612 174.174 100.775 163.545 109.665C156.059 115.919 137.139 129.261 108.668 136.933C80.1966 144.61 57.179 142.574 47.5752 140.911C33.9601 138.562 26.8387 135.572 27.5049 145.928C28.0847 155.062 30.2605 169.224 35.2445 187.928C46.0272 228.433 81.663 306.481 149.01 288.342C166.602 283.602 179.019 274.233 187.626 262.291H161.661V262.296ZM61.0848 188.484L108.946 175.876C108.946 175.876 107.551 194.288 89.6087 199.018C71.6614 203.743 61.0848 188.484 61.0848 188.484Z" fill="#E2574C"/>
      <path d="M341.786 129.174C329.345 131.355 299.498 134.072 262.612 124.185C225.716 114.304 201.236 97.0224 191.537 88.8994C177.788 77.3834 171.74 69.3802 165.788 81.4857C160.526 92.163 153.797 109.54 147.284 133.866C133.171 186.543 122.623 297.706 209.867 321.098C297.093 344.47 343.53 242.92 357.644 190.238C364.157 165.917 367.013 147.5 367.799 135.625C368.695 122.173 359.455 126.078 341.786 129.174ZM166.497 172.756C166.497 172.756 180.246 151.372 203.565 158C226.899 164.628 228.706 190.425 228.706 190.425L166.497 172.756ZM223.42 268.713C182.403 256.698 176.077 223.99 176.077 223.99L286.262 254.796C286.262 254.791 264.021 280.578 223.42 268.713ZM262.377 201.495C262.377 201.495 276.107 180.126 299.422 186.773C322.736 193.411 324.572 219.208 324.572 219.208L262.377 201.495Z" fill="#2EAD33"/>
    </symbol>

    <!-- Microsoft Entra ID (official Azure icon — Tenant Properties / Entra) -->
    <symbol id="ico-entra" viewBox="0 0 18 18">
      <defs>
        <linearGradient id="e-grad-1" x1="11.972" y1="14.787" x2="11.972" y2="2.782" gradientUnits="userSpaceOnUse"><stop offset="0" stop-color="#32bedd"/><stop offset="0.576" stop-color="#32ceef"/><stop offset="1" stop-color="#32d4f5"/></linearGradient>
        <linearGradient id="e-grad-2" x1="4.699" y1="15.352" x2="4.699" y2="3.839" gradientUnits="userSpaceOnUse"><stop offset="0" stop-color="#1988d9"/><stop offset="0.9" stop-color="#54aef0"/></linearGradient>
        <linearGradient id="e-grad-3" x1="1.31" y1="15.346" x2="1.31" y2="3.839" gradientUnits="userSpaceOnUse"><stop offset="0" stop-color="#005ba1"/><stop offset="1" stop-color="#0078d4"/></linearGradient>
      </defs>
      <path d="M17.975,9.225V8.269a.3.3,0,0,0-.192-.277h0l-1.335-.438a.3.3,0,0,1-.182-.169L15.983,6.7a.3.3,0,0,1,.006-.238l.6-1.279a.3.3,0,0,0-.059-.335l-.662-.663a.3.3,0,0,0-.342-.055h0l-1.248.635a.294.294,0,0,1-.246.01l-.69-.283a.3.3,0,0,1-.166-.173l-.485-1.338a.3.3,0,0,0-.278-.195h-.956a.3.3,0,0,0-.277.192h0l-.438,1.335a.3.3,0,0,1-.169.181l-.688.283a.3.3,0,0,1-.24-.007l-1.254-.6a.3.3,0,0,0-.336.058l-.662.662a.3.3,0,0,0-.056.342h0l.635,1.247a.3.3,0,0,1,.01.247L7.7,7.414a.3.3,0,0,1-.174.166l-1.36.486a.3.3,0,0,0-.2.279V9.3a.3.3,0,0,0,.193.277h0l1.334.437a.3.3,0,0,1,.182.169l.283.69a.3.3,0,0,1-.006.238l-.6,1.279a.3.3,0,0,0,.059.335l.663.663a.3.3,0,0,0,.341.055h0l1.247-.635a.3.3,0,0,1,.247-.01l.689.283a.289.289,0,0,1,.166.173l.485,1.338a.3.3,0,0,0,.279.2h.955a.3.3,0,0,0,.278-.192h0L13.2,13.26a.294.294,0,0,1,.169-.181l.69-.283a.29.29,0,0,1,.238.006l1.279.6a.3.3,0,0,0,.335-.058l.663-.663a.3.3,0,0,0,.055-.342h0L16,11.09a.294.294,0,0,1-.01-.246l.282-.69a.3.3,0,0,1,.173-.166L17.78,9.5A.3.3,0,0,0,17.975,9.225ZM12.24,11.406a2.635,2.635,0,1,1,2.354-2.353A2.635,2.635,0,0,1,12.24,11.406Z" fill="url(#e-grad-1)"/>
      <path d="M.049,3.85.954,2.8a.441.441,0,0,1,.332-.151H9.964a.608.608,0,0,1,.664.621V14.041a.24.24,0,0,1-.083.182L9.282,15.316H.636l-.6-.252Z" fill="#005ba1"/>
      <path d="M.777,3.846l.555-.633a.392.392,0,0,1,.294-.133h8.1a.39.39,0,0,1,.39.39v10.3a.391.391,0,0,1-.127.289l-.866.788Z" fill="#fff"/>
      <path d="M9.139,3.839H.1A.058.058,0,0,0,.036,3.9V15.13a.222.222,0,0,0,.222.222H9.139a.223.223,0,0,0,.223-.222V4.061A.222.222,0,0,0,9.139,3.839Z" fill="url(#e-grad-2)"/>
      <path d="M.071,3.839H2.594a0,0,0,0,1,0,0V15.346a0,0,0,0,1,0,0H.213a.188.188,0,0,1-.188-.188V3.885A.046.046,0,0,1,.071,3.839Z" fill="url(#e-grad-3)"/>
    </symbol>

    <!-- Azure Container Apps (official Azure icon) -->
    <symbol id="ico-aca" viewBox="0 0 18 18">
      <defs>
        <linearGradient id="aca-grad-1" x1="8.798" y1="8.703" x2="14.683" y2="8.703" gradientUnits="userSpaceOnUse"><stop offset="0.001" stop-color="#773adc"/><stop offset="1" stop-color="#552f99"/></linearGradient>
        <linearGradient id="aca-grad-2" x1="5.764" y1="3.777" x2="5.764" y2="13.78" gradientUnits="userSpaceOnUse"><stop offset="0" stop-color="#a67af4"/><stop offset="0.999" stop-color="#773adc"/></linearGradient>
      </defs>
      <path d="M16.932,11.578a8.448,8.448,0,0,1-7.95,5.59,8.15,8.15,0,0,1-2.33-.33,2.133,2.133,0,0,0,.18-.83c.01,0,.03.01.04.01a7.422,7.422,0,0,0,2.11.3,7.646,7.646,0,0,0,6.85-4.28l.01-.01Z" fill="#32bedd"/>
      <path d="M3.582,14.068a2.025,2.025,0,0,0-.64.56,8.6,8.6,0,0,1-1.67-2.44l1.04.23v.26a.6.6,0,0,0,.47.59l.14.03a6.136,6.136,0,0,0,.62.73Z" fill="#32bedd"/>
      <path d="M12.352.958a2.28,2.28,0,0,0-.27.81c-.02-.01-.05-.02-.07-.03a7.479,7.479,0,0,0-3.03-.63,7.643,7.643,0,0,0-5.9,2.8l-.29.06a.6.6,0,0,0-.48.58v.46l-1.02.19A8.454,8.454,0,0,1,8.982.268,8.6,8.6,0,0,1,12.352.958Z" fill="#32bedd"/>
      <path d="M16.872,5.7l-1.09-.38a6.6,6.6,0,0,0-.72-1.16c-.02-.03-.04-.05-.05-.07a2.083,2.083,0,0,0,.72-.45A7.81,7.81,0,0,1,16.872,5.7Z" fill="#32bedd"/>
      <path d="M10.072,11.908l2.54.56L8.672,14.1c-.02,0-.03.01-.05.01a.154.154,0,0,1-.15-.15V3.448a.154.154,0,0,1,.15-.15.09.09,0,0,1,.05.01l4.46,1.56-3.05.57a.565.565,0,0,0-.44.54v5.4A.537.537,0,0,0,10.072,11.908Z" fill="#fff"/>
      <path d="M1.1,5.668l1.21-.23v6.55l-1.23-.27-.99-.22a.111.111,0,0,1-.09-.12v-5.4a.12.12,0,0,1,.09-.12Z" fill="#a67af4"/>
      <path d="M10.072,11.908l2.54.56L8.672,14.1c-.02,0-.03.01-.05.01a.154.154,0,0,1-.15-.15V3.448a.154.154,0,0,1,.15-.15.09.09,0,0,1,.05.01l4.46,1.56-3.05.57a.565.565,0,0,0-.44.54v5.4A.537.537,0,0,0,10.072,11.908Z" fill="url(#aca-grad-1)"/>
      <path d="M8.586,3.3,2.878,4.378a.177.177,0,0,0-.14.175V12.68a.177.177,0,0,0,.137.174L8.581,14.1a.176.176,0,0,0,.21-.174V3.478A.175.175,0,0,0,8.619,3.3Z" fill="url(#aca-grad-2)"/>
      <polygon points="5.948 4.921 5.948 12.483 7.934 12.814 7.934 4.564 5.948 4.921" fill="#b796f9" opacity="0.5"/>
      <polygon points="3.509 5.329 3.509 11.954 5.238 12.317 5.238 5.031 3.509 5.329" fill="#b796f9" opacity="0.5"/>
      <circle cx="14.24" cy="2.048" r="1.755" fill="#32bedd"/>
      <circle cx="4.65" cy="15.973" r="1.759" fill="#32bedd"/>
      <path d="M18,6.689v3.844a.222.222,0,0,1-.133.2l-.766.316-3.07,1.268-.011,0a.126.126,0,0,1-.038,0,.1.1,0,0,1-.1-.1V5.234a.1.1,0,0,1,.054-.088l0,0,.019,0a.031.031,0,0,1,.019,0,.055.055,0,0,1,.034.008l.011,0,.012,0L17.05,6.2l.8.282A.213.213,0,0,1,18,6.689Z" fill="#773adc"/>
      <path d="M13.959,5.14l-3.8.715a.118.118,0,0,0-.093.117v5.409a.118.118,0,0,0,.091.116l3.8.831a.115.115,0,0,0,.137-.09.109.109,0,0,0,0-.026V5.256a.117.117,0,0,0-.115-.118A.082.082,0,0,0,13.959,5.14Z" fill="#a67af4"/>
    </symbol>

    <!-- Azure Container Apps Environment (official Azure icon) -->
    <symbol id="ico-acaenv" viewBox="0 0 18 18">
      <defs>
        <linearGradient id="acaenv-grad-1" x1="11.729" y1="4.88" x2="11.729" y2="13.099" gradientUnits="userSpaceOnUse"><stop offset="0.001" stop-color="#773adc"/><stop offset="0.528" stop-color="#6635bb"/><stop offset="1" stop-color="#552f99"/></linearGradient>
        <linearGradient id="acaenv-grad-2" x1="6.35" y1="13.914" x2="6.35" y2="4.198" gradientUnits="userSpaceOnUse"><stop offset="0.001" stop-color="#773adc"/><stop offset="0.307" stop-color="#793ddd"/><stop offset="0.532" stop-color="#8046e1"/><stop offset="0.731" stop-color="#8c56e7"/><stop offset="0.915" stop-color="#9c6def"/><stop offset="1" stop-color="#a67af4"/></linearGradient>
      </defs>
      <path d="M8.617,8.644H.639V1.784A1.16,1.16,0,0,1,1.788.624H8.617ZM1.63,7.653h6V1.594H1.788a.158.158,0,0,0-.158.158h0Z" fill="#949494"/>
      <path d="M17.5,8.644H9.523V.624h6.828A1.16,1.16,0,0,1,17.5,1.784Zm-6.987-.991h6V1.784a.157.157,0,0,0-.123-.187.2.2,0,0,0-.035,0H10.513Z" fill="#949494"/>
      <path d="M8.617,17.485H1.788A1.149,1.149,0,0,1,.639,16.347V9.476H8.617ZM1.63,10.467v5.88a.158.158,0,0,0,.158.158H7.626V10.467Z" fill="#949494"/>
      <path d="M16.351,17.485H9.523V9.476H17.5v6.871A1.149,1.149,0,0,1,16.351,17.485Zm-5.838-.991h5.838a.157.157,0,0,0,.158-.158V10.467h-6Z" fill="#949494"/>
      <path d="M14.6,6.294a.294.294,0,0,0-.2-.278L9.044,4.205A.128.128,0,0,0,9,4.2H9a.132.132,0,0,0-.133.133v9.445A.133.133,0,0,0,9,13.911H9a.138.138,0,0,0,.049-.01l5.365-2.145a.292.292,0,0,0,.184-.272Z" fill="url(#acaenv-grad-1)"/>
      <path d="M8.966,4.2l-5.293.966a.161.161,0,0,0-.13.158V12.63a.16.16,0,0,0,.126.157L8.962,13.91a.161.161,0,0,0,.191-.121.22.22,0,0,0,0-.036V4.358A.16.16,0,0,0,9,4.2.163.163,0,0,0,8.966,4.2Z" fill="url(#acaenv-grad-2)"/>
      <path d="M6.52,5.656v6.8l1.842.3V5.335Zm-2.262.367v5.955l1.6.326V5.754Z" fill="#b796f9" opacity="0.5"/>
    </symbol>

    <!-- Managed Identity (official Azure icon) -->
    <symbol id="ico-mi" viewBox="0 0 18 18">
      <defs>
        <linearGradient id="mi-grad-1" x1="13.18" y1="13.01" x2="8.63" y2="4.38" gradientUnits="userSpaceOnUse"><stop offset="0" stop-color="#1988d9"/><stop offset="0.9" stop-color="#54aef0"/></linearGradient>
        <linearGradient id="mi-grad-2" x1="11.22" y1="10.5" x2="14.37" y2="15.93" gradientUnits="userSpaceOnUse"><stop offset="0.1" stop-color="#54aef0"/><stop offset="0.29" stop-color="#4fabee"/><stop offset="0.51" stop-color="#41a2e9"/><stop offset="0.74" stop-color="#2a93e0"/><stop offset="0.88" stop-color="#1988d9"/></linearGradient>
      </defs>
      <polygon points="1.15 10.22 8.93 15.27 16.85 10.21 17.85 11.36 8.93 17.11 0.15 11.37 1.15 10.22" fill="#50e6ff"/>
      <polygon points="1.73 9.58 8.93 1 16.28 9.59 8.93 14.23 1.73 9.58" fill="#fff"/>
      <polygon points="8.93 1 8.93 14.23 1.73 9.58 8.93 1" fill="#50e6ff"/>
      <polygon points="8.93 1 8.93 14.23 16.28 9.59 8.93 1" fill="url(#mi-grad-1)"/>
      <polygon points="8.93 7.83 16.28 9.59 8.93 14.23 8.93 7.83" fill="#53b1e0"/>
      <polygon points="8.93 14.23 1.73 9.58 8.93 7.83 8.93 14.23" fill="#9cebff"/>
      <polygon points="8.93 17.11 17.85 11.36 16.85 10.21 8.93 15.27 8.93 17.11" fill="url(#mi-grad-2)"/>
      <path d="M16.32,11.88a1.16,1.16,0,0,0,0-1.65h0l-2-2a1.16,1.16,0,0,0-1.64,0h0l-2,2a1.18,1.18,0,0,0,0,1.65l1.67,1.67a.32.32,0,0,1,.09.23v3.1a.36.36,0,0,0,.12.28l.76.76a.25.25,0,0,0,.37,0l.73-.73h0l.44-.44a.15.15,0,0,0,0-.21l-.31-.31a.16.16,0,0,1,0-.24l.31-.31a.16.16,0,0,0,0-.22l-.31-.31a.15.15,0,0,1,0-.23l.31-.32a.15.15,0,0,0,0-.21l-.44-.44v-.16ZM13.5,8.71a.66.66,0,1,1-.66.66.66.66,0,0,1,.66-.66Z" fill="#ffca00"/>
      <path d="M13,17h0a.14.14,0,0,0,.24-.11V14.33a.16.16,0,0,0-.06-.13h0a.14.14,0,0,0-.22.13v2.51A.15.15,0,0,0,13,17Z" fill="#ff9300" opacity="0.75"/>
      <rect x="11.9" y="10.9" width="3.29" height="0.39" rx="0.18" fill="#ff9300" opacity="0.75"/>
      <rect x="11.9" y="11.53" width="3.29" height="0.39" rx="0.18" fill="#ff9300" opacity="0.75"/>
    </symbol>

    <!-- Azure Blob Storage (official Azure icon) -->
    <symbol id="ico-blob" viewBox="0 0 18 18">
      <defs>
        <linearGradient id="blob-grad" x1="9" y1="15.834" x2="9" y2="5.788" gradientUnits="userSpaceOnUse"><stop offset="0" stop-color="#32bedd"/><stop offset="0.775" stop-color="#32d4f5"/></linearGradient>
      </defs>
      <path d="M.5,5.788h17a0,0,0,0,1,0,0v9.478a.568.568,0,0,1-.568.568H1.068A.568.568,0,0,1,.5,15.266V5.788A0,0,0,0,1,.5,5.788Z" fill="url(#blob-grad)"/>
      <path d="M1.071,2.166H16.929a.568.568,0,0,1,.568.568V5.788a0,0,0,0,1,0,0H.5a0,0,0,0,1,0,0V2.734A.568.568,0,0,1,1.071,2.166Z" fill="#0078d4"/>
      <rect x="2.328" y="7.049" width="6.281" height="3.408" rx="0.283" fill="#0078d4"/>
      <rect x="9.336" y="7.049" width="6.281" height="3.408" rx="0.283" fill="#fff"/>
      <rect x="2.296" y="11.128" width="6.281" height="3.408" rx="0.283" fill="#0078d4"/>
      <rect x="9.304" y="11.128" width="6.281" height="3.408" rx="0.283" fill="#0078d4"/>
    </symbol>

    <!-- Microsoft Container Registry (official Azure icon — Container Registries) -->
    <symbol id="ico-mcr" viewBox="0 0 18 18">
      <defs>
        <linearGradient id="mcr-grad-1" x1="8.637" y1="-1.991" x2="8.637" y2="16.739" gradientUnits="userSpaceOnUse"><stop offset="0" stop-color="#5ea0ef"/><stop offset="1" stop-color="#0078d4"/></linearGradient>
        <linearGradient id="mcr-grad-2" x1="12.96" y1="8.561" x2="12.96" y2="6.141" gradientTransform="matrix(1, 0, 0, -1, 0, 20)" gradientUnits="userSpaceOnUse"><stop offset="0" stop-color="#333132"/><stop offset="1" stop-color="#5b5a5c"/></linearGradient>
      </defs>
      <path d="M7.43,8.178l2.589-1.573,7.255,2.731A3.664,3.664,0,0,0,16.23,7.49l-.01-.05A4.194,4.194,0,0,0,14,6.32a4.91,4.91,0,0,0-5.1-4.7A5.071,5.071,0,0,0,4.06,4.91,4.621,4.621,0,0,0,0,9.39a4.73,4.73,0,0,0,4.89,4.54H7.43Z" fill="url(#mcr-grad-1)"/>
      <polygon points="10.07 7.159 10.08 11.439 17.99 13.119 17.99 10.139 10.07 7.159" fill="#767676"/>
      <polyline points="10.07 7.159 7.93 8.459 7.93 12.439 10.08 11.439" fill="#999"/>
      <polygon points="13.68 11.499 14.4 11.699 14.4 9.369 13.68 9.119 13.68 11.499" fill="#a3a3a3"/>
      <polygon points="12.96 8.889 12.24 8.629 12.24 11.119 12.96 11.319 12.96 8.889" fill="#a3a3a3"/>
      <polygon points="15.12 11.889 15.82 12.079 15.84 9.859 15.12 9.619 15.12 11.889" fill="#a3a3a3"/>
      <polygon points="10.81 10.749 11.53 10.929 11.53 8.399 10.81 8.159 10.81 10.749" fill="#a3a3a3"/>
      <polygon points="17.27 10.349 16.55 10.099 16.55 12.269 17.27 12.469 17.27 10.349" fill="#a3a3a3"/>
      <path d="M8.66,11.369l-.36.21V8.749l.36-.19Zm.71-3.22L9,8.389v2.75l.37-.2Z" fill="#b3b3b3"/>
      <polygon points="17.99 13.119 15.83 13.859 7.93 12.439 10.08 11.439 17.99 13.119" fill="url(#mcr-grad-2)"/>
      <polygon points="17.99 16.169 10.04 17.679 10.08 12.089 17.99 13.559 17.99 16.169" fill="#767676"/>
      <polygon points="10.81 16.759 10.81 13.209 11.53 13.299 11.53 16.639 10.81 16.759" fill="#a3a3a3"/>
      <polygon points="12.96 16.399 12.24 16.529 12.24 13.389 12.96 13.499 12.96 16.399 12.96 16.399" fill="#a3a3a3"/>
      <polygon points="13.68 16.289 13.68 13.569 14.4 13.659 14.4 16.159 13.68 16.289" fill="#a3a3a3"/>
      <polygon points="15.83 15.909 15.12 16.039 15.12 13.749 15.83 13.859 15.83 15.909" fill="#a3a3a3"/>
      <polygon points="17.29 15.679 16.55 15.809 16.55 13.929 17.24 14.019 17.29 15.679" fill="#a3a3a3"/>
      <path d="M7.93,16.4v-3.26l2.16-1v5.6Z" fill="#999"/>
      <path d="M8.61,16.389l-.32-.16v-2.76l.32-.15Zm.77-3.45-.38.19v3.48l.37.19v-3.86Z" fill="#b3b3b3"/>
    </symbol>

    <!-- Generic client (browser-ish) -->
    <symbol id="ico-client" viewBox="0 0 50 50">
      <rect x="5" y="9" width="40" height="32" rx="3" fill="#323130"/>
      <rect x="5" y="9" width="40" height="7" fill="#605E5C"/>
      <circle cx="10" cy="12.5" r="1.5" fill="#FF5F57"/>
      <circle cx="15" cy="12.5" r="1.5" fill="#FEBC2E"/>
      <circle cx="20" cy="12.5" r="1.5" fill="#28C840"/>
      <rect x="9" y="20" width="32" height="3" fill="#FFFFFF" opacity="0.7"/>
      <rect x="9" y="26" width="22" height="3" fill="#FFFFFF" opacity="0.5"/>
      <rect x="9" y="32" width="26" height="3" fill="#FFFFFF" opacity="0.5"/>
    </symbol>

    <!-- Globe / sites -->
    <symbol id="ico-web" viewBox="0 0 50 50">
      <circle cx="25" cy="25" r="21" fill="#0078D4"/>
      <ellipse cx="25" cy="25" rx="21" ry="9" fill="none" stroke="#FFFFFF" stroke-width="1.6"/>
      <ellipse cx="25" cy="25" rx="9" ry="21" fill="none" stroke="#FFFFFF" stroke-width="1.6"/>
      <line x1="4" y1="25" x2="46" y2="25" stroke="#FFFFFF" stroke-width="1.6"/>
      <line x1="25" y1="4" x2="25" y2="46" stroke="#FFFFFF" stroke-width="1.6"/>
    </symbol>
  </defs>

  <!-- Canvas + header -->
  <rect width="1480" height="880" class="canvas-bg"/>
  <text x="40" y="42" class="header">E-Commerce MCP Solution Accelerator — Azure architecture (production path)</text>
  <text x="40" y="62" class="subheader">Foundry agent uses an MCPTool to call a Playwright MCP server hosted on Azure Container Apps. Image is pulled from the public Microsoft Container Registry.</text>

  <!-- Subscription boundary -->
  <rect x="320" y="100" width="950" height="540" class="sub-box"/>
  <rect x="335" y="92"  width="170" height="22" class="sub-tab" rx="6" ry="6"/>
  <text x="345" y="108" font-size="12px" font-weight="700" fill="#FFFFFF">Azure subscription</text>

  <!-- Resource group inside subscription -->
  <rect x="345" y="135" width="905" height="490" class="rg-box"/>
  <rect x="360" y="127" width="240" height="22" class="rg-tab"/>
  <text x="370" y="143" class="boundary-label">Resource group · rg-ecommerce-mcp (Bicep)</text>

  <!-- Microsoft Entra ID (top-left, outside subscription) -->
  <g transform="translate(50,130)">
    <rect width="240" height="120" rx="10" ry="10" fill="#FFFFFF" stroke="#8A8886" stroke-width="1.2"/>
    <use href="#ico-entra" x="20" y="35" width="50" height="50"/>
    <text x="155" y="46" class="svc-title">Microsoft Entra ID</text>
    <text x="155" y="66" class="svc-sub">Issues tokens for the client</text>
    <text x="155" y="82" class="svc-sub">and the agent's managed</text>
    <text x="155" y="98" class="svc-sub">identity (OAuth 2.0)</text>
  </g>

  <!-- Client (left) -->
  <g transform="translate(50,310)">
    <rect width="240" height="130" rx="10" ry="10" fill="#FFFFFF" stroke="#8A8886" stroke-width="1.2"/>
    <use href="#ico-client" x="20" y="40" width="50" height="50"/>
    <text x="155" y="46" class="svc-title">Client / scheduler</text>
    <text x="155" y="66" class="svc-sub">Python (azure-ai-projects 2.x)</text>
    <text x="155" y="84" class="svc-sub">Azure Function · CLI · cron</text>
    <text x="155" y="102" class="svc-sub">DefaultAzureCredential</text>
    <text x="155" y="120" class="svc-sub">No Node.js / no MCP runtime</text>
  </g>

  <!-- Auth dotted line: client -> Entra -->
  <path class="flow-dot" d="M170 310 L170 250"/>
  <text x="178" y="285" class="flow-label">authenticate</text>

  <!-- Foundry project group -->
  <rect x="370" y="180" width="320" height="280" class="group-box"/>
  <text x="385" y="200" class="group-label">Microsoft Foundry project</text>

  <!-- Foundry Agent tile -->
  <g transform="translate(390,225)">
    <rect width="280" height="220" rx="10" ry="10" fill="#FFFFFF" stroke="#C8C6C4" stroke-width="1.2"/>
    <use href="#logo-foundry" x="113" y="14" width="54" height="54"/>
    <text x="140" y="92"  class="svc-title">Foundry agent (v2)</text>
    <text x="140" y="112" class="svc-sub">GPT-5.4 / GPT-4.1 model deployment</text>
    <text x="140" y="130" class="svc-sub">MCPTool(server_url=PLAYWRIGHT_MCP_URL)</text>
    <text x="140" y="148" class="svc-sub">Responses API · server-side tool calls</text>
    <text x="140" y="166" class="svc-sub">Registered by name + version</text>
    <use href="#ico-mi" x="22" y="180" width="26" height="26"/>
    <text x="155" y="200" class="svc-sub">System-assigned managed identity</text>
  </g>

  <!-- Container Apps environment -->
  <rect x="730" y="180" width="500" height="280" class="env-box"/>
  <use href="#ico-acaenv" x="742" y="187" width="18" height="18"/>
  <text x="765" y="200" class="boundary-label">Container Apps environment · cae-ecommerce-mcp</text>

  <!-- Container App: Playwright MCP -->
  <g transform="translate(750,225)">
    <rect width="460" height="220" rx="10" ry="10" fill="#FFFFFF" stroke="#C8C6C4" stroke-width="1.2"/>
    <use href="#ico-aca" x="18" y="18" width="50" height="50"/>
    <text x="240" y="36" class="svc-title">ca-playwright-mcp  (Container App)</text>
    <text x="240" y="56" class="svc-sub">External HTTPS ingress · 1 vCPU / 2 GiB · auto-scale 1–3</text>

    <!-- Inner container content -->
    <rect x="18" y="80" width="424" height="125" rx="8" ry="8" fill="#FAFCFE" stroke="#C8C6C4" stroke-width="1" stroke-dasharray="3 3"/>
    <text x="28" y="98" class="group-label">Container</text>
    <use href="#logo-playwright" x="30" y="108" width="64" height="64"/>
    <text x="270" y="112" class="svc-title">Playwright MCP server</text>
    <text x="270" y="132" class="svc-sub">@playwright/mcp@latest --port 8080 --headless</text>
    <text x="270" y="150" class="svc-sub">~28 browser_* MCP tools (navigate, snapshot,</text>
    <text x="270" y="166" class="svc-sub">click, fill, screenshot, …)</text>
    <text x="270" y="184" class="svc-sub">Headless Chromium</text>
    <text x="270" y="200" class="svc-sub" font-style="italic">image: mcr.microsoft.com/playwright:v1.52.0-noble</text>
  </g>

  <!-- Optional Blob Storage inside RG -->
  <g transform="translate(380,490)">
    <rect width="320" height="115" class="opt-box"/>
    <text x="15" y="20" class="opt-label">Optional</text>
    <use href="#ico-blob" x="20" y="40" width="50" height="50"/>
    <text x="200" y="56" class="svc-title">Azure Blob Storage</text>
    <text x="200" y="76" class="svc-sub">Audit-grade screenshot persistence</text>
    <text x="200" y="94" class="svc-sub">Optional; not required by the accelerator</text>
  </g>

  <!-- Optional dotted arrow ACA -> Blob -->
  <path class="flow-opt" d="M820 460 C 820 510, 720 525, 700 545"/>
  <text x="615" y="510" class="flow-label" fill="#8A8886">screenshots (optional)</text>

  <!-- Microsoft Container Registry (top-right, outside subscription) -->
  <g transform="translate(1300,130)">
    <rect width="160" height="180" rx="10" ry="10" fill="#FFFFFF" stroke="#8A8886" stroke-width="1.2"/>
    <use href="#ico-mcr" x="55" y="20" width="50" height="50"/>
    <text x="80" y="92"  class="svc-title">Microsoft</text>
    <text x="80" y="108" class="svc-title">Container Registry</text>
    <text x="80" y="126" class="svc-sub">mcr.microsoft.com</text>
    <text x="80" y="142" class="svc-sub">/playwright (public)</text>
  </g>

  <!-- Pull arrow MCR -> Container App -->
  <path class="flow" d="M1300 260 C 1260 260, 1240 260, 1210 260"/>
  <text x="1220" y="252" class="flow-label">image pull</text>

  <!-- Target sites (right, outside subscription) -->
  <g transform="translate(1300,400)">
    <rect width="160" height="200" rx="10" ry="10" fill="#FFFFFF" stroke="#8A8886" stroke-width="1.2"/>
    <use href="#ico-web" x="55" y="20" width="50" height="50"/>
    <text x="80" y="92"  class="svc-title">E-commerce sites</text>
    <text x="80" y="112" class="svc-sub">Amazon · Walmart</text>
    <text x="80" y="128" class="svc-sub">Instacart · any site</text>
    <text x="80" y="148" class="svc-sub">HTTPS</text>
    <text x="80" y="170" class="svc-sub">Tier 1 / 2 / 3</text>
    <text x="80" y="186" class="svc-sub">(price · geo · device)</text>
  </g>

  <!-- Browser-out arrow from Container App to web -->
  <path class="flow" d="M1210 410 C 1260 430, 1280 470, 1300 480"/>
  <text x="1215" y="450" class="flow-label">headless browser</text>

  <!-- Main flow arrows -->
  <path class="flow-strong" d="M290 360 C 340 360, 360 335, 390 335"/>
  <text x="296" y="350" class="flow-label">Responses API · HTTPS</text>

  <path class="flow-strong" d="M670 335 C 700 335, 720 335, 750 335"/>
  <text x="678" y="325" class="flow-label">MCP over HTTPS</text>

  <!-- Numbered steps -->
  <g>
    <circle cx="170" cy="280" r="11" class="step"/><text x="170" y="280" class="step-text">1</text>
    <circle cx="335" cy="350" r="11" class="step"/><text x="335" y="350" class="step-text">2</text>
    <circle cx="710" cy="320" r="11" class="step"/><text x="710" y="320" class="step-text">3</text>
    <circle cx="1245" cy="245" r="11" class="step"/><text x="1245" y="245" class="step-text">4</text>
    <circle cx="1255" cy="445" r="11" class="step"/><text x="1255" y="445" class="step-text">5</text>
    <circle cx="600" cy="495" r="11" class="step"/><text x="600" y="495" class="step-text">6</text>
  </g>

  <!-- Legend / Data flow -->
  <g transform="translate(40,660)">
    <rect width="1400" height="200" class="legend-box"/>
    <text x="20" y="26" class="legend-title">Data flow</text>

    <g transform="translate(20,42)">
      <circle cx="11" cy="11" r="11" class="step"/><text x="11" y="11" class="step-text">1</text>
      <text x="32" y="15" class="legend-item">Client acquires a token from Microsoft Entra ID via DefaultAzureCredential / managed identity.</text>

      <circle cx="11" cy="38" r="11" class="step"/><text x="11" y="38" class="step-text">2</text>
      <text x="32" y="42" class="legend-item">Client calls the Microsoft Foundry Responses API for the registered agent (name + version) over HTTPS.</text>

      <circle cx="11" cy="65" r="11" class="step"/><text x="11" y="65" class="step-text">3</text>
      <text x="32" y="69" class="legend-item">The agent executes its MCPTool(server_url=…) and calls the Playwright MCP server in Azure Container Apps over HTTPS — server-side, no client proxy.</text>

      <circle cx="11" cy="92" r="11" class="step"/><text x="11" y="92" class="step-text">4</text>
      <text x="32" y="96" class="legend-item">Container App pulls the public Playwright image from mcr.microsoft.com/playwright (no customer Container Registry required).</text>

      <circle cx="11" cy="119" r="11" class="step"/><text x="11" y="119" class="step-text">5</text>
      <text x="32" y="123" class="legend-item">Headless Chromium inside the container browses the target e-commerce sites (Tier 1 price, Tier 2 geo, Tier 3 device emulation).</text>

      <circle cx="11" cy="146" r="11" class="step"/><text x="11" y="146" class="step-text">6</text>
      <text x="32" y="150" class="legend-item">Optional: container persists screenshots to Azure Blob Storage. Foundry portal natively shows agent runs, traces, tokens &amp; cost.</text>
    </g>

    <g transform="translate(740,42)">
      <text x="0" y="0"   class="legend-title">Notes</text>
      <text x="0" y="24"  class="legend-item">• Infra defined in production/infra/main.bicep; deployed by infra/deploy.sh.</text>
      <text x="0" y="44"  class="legend-item">• Identity: Foundry agent uses a system-assigned managed identity for ACA invocation.</text>
      <text x="0" y="64"  class="legend-item">• Observability: Microsoft Foundry portal (agent runs, token usage, traces) — no Azure Monitor needed.</text>
      <text x="0" y="84"  class="legend-item">• Networking: external HTTPS ingress; private VNet + Foundry private MCP networking is optional.</text>
      <text x="0" y="104" class="legend-item">• Solid blue = primary flow. Dotted = identity/auth. Loose dash = optional path.</text>

      <text x="0" y="138" class="legend-note">Logos: Microsoft Foundry and Playwright marks are the official logos. Azure service icons (Entra ID,</text>
      <text x="0" y="154" class="legend-note">Container Apps, Container Apps Environment, Managed Identity, Blob Storage, Container Registries)</text>
      <text x="0" y="170" class="legend-note">are from the official Microsoft Azure Public Service Icons set (V23).</text>
    </g>
  </g>
</svg>
